<?xml version="1.0" encoding="utf-8"?>
<!-- Generator: Adobe Illustrator 19.2.1, SVG Export Plug-In . SVG Version: 6.00 Build 0)  -->
<svg version="1.1" id="Layer_1" xmlns="http://www.w3.org/2000/svg" xmlns:xlink="http://www.w3.org/1999/xlink" x="0px" y="0px"
	 viewBox="0 0 256 256" style="enable-background:new 0 0 256 256;" xml:space="preserve">
<style type="text/css">
	.st0{fill:#04723C;}
	.st1{fill:#FFFFFF;}
</style>
<title>icon</title>
<path class="st0" d="M128,256c-1.1,0-2.1-0.3-3.1-0.8l-96.6-55.8c-1.9-1.1-3.1-3.1-3.1-5.3V82.6c0-2.2,1.2-4.2,3.1-5.3l96.6-55.8
	c1.9-1.1,4.2-1.1,6.1,0l96.6,55.8c1.9,1.1,3.1,3.1,3.1,5.3v111.5c0,2.2-1.2,4.2-3.1,5.3l-96.6,55.8C130.1,255.7,129.1,256,128,256z
	 M37.6,190.5l90.4,52.2l90.4-52.2V86.1L128,33.9L37.6,86.1V190.5z"/>
<polygon class="st0" points="186.6,6.1 216.6,23.5 216.6,58.1 186.6,75.5 156.6,58.1 156.6,23.5 "/>
<path class="st0" d="M186.6,81.6c-1.1,0-2.1-0.3-3.1-0.8l-30-17.3c-1.9-1.1-3.1-3.1-3.1-5.3V23.5c0-2.2,1.2-4.2,3.1-5.3l30-17.3
	c1.9-1.1,4.2-1.1,6.1,0l30,17.3c1.9,1.1,3.1,3.1,3.1,5.3v34.7c0,2.2-1.2,4.2-3.1,5.3l-30,17.3C188.8,81.3,187.7,81.6,186.6,81.6z
	 M162.7,54.6l23.9,13.8l23.9-13.8V27l-23.9-13.8L162.7,27L162.7,54.6L162.7,54.6z"/>
<path class="st1" d="M202.1,52.1c0,1-0.8,1.8-1.8,1.8h-27c-1,0-1.8-0.8-1.8-1.8v-5.9c0-1,0.8-1.8,1.8-1.8h8.5l2.5,2.5
	c1.4,1.4,3.6,1.4,5,0l2.5-2.5h8.5c1,0,1.8,0.8,1.8,1.8L202.1,52.1L202.1,52.1z M195.9,37.1l-8.2,8.2c-0.4,0.5-1.2,0.5-1.6,0
	c0,0,0,0,0,0l-8.2-8.2c-0.3-0.3-0.4-0.8-0.3-1.3c0.2-0.4,0.6-0.7,1.1-0.7h4.7v-8.2c0-0.6,0.5-1.2,1.2-1.2h4.7c0.6,0,1.2,0.5,1.2,1.2
	v8.2h4.7c0.5,0,0.9,0.3,1.1,0.7C196.3,36.3,196.2,36.8,195.9,37.1L195.9,37.1z M193.9,49.2c-0.6,0-1.2,0.5-1.2,1.2s0.5,1.2,1.2,1.2
	c0.6,0,1.2-0.5,1.2-1.2v0C195.1,49.8,194.6,49.2,193.9,49.2C193.9,49.2,193.9,49.2,193.9,49.2L193.9,49.2z M198.6,49.2
	c-0.6,0-1.2,0.5-1.2,1.2s0.5,1.2,1.2,1.2c0.6,0,1.2-0.5,1.2-1.2v0C199.8,49.8,199.3,49.2,198.6,49.2
	C198.6,49.2,198.6,49.2,198.6,49.2L198.6,49.2z"/>
<polygon class="st1" points="170.4,186.5 87.8,186.5 87.8,92.8 146.5,92.8 158.2,104.9 170.4,117.1 "/>
<path class="st0" d="M173.1,119.7v66.8c0,3.1-2.5,5.6-5.6,5.6c0,0,0,0,0,0h-78c-3.1,0-5.5-2.5-5.5-5.6V93.7c0-3.1,2.5-5.6,5.5-5.6
	c0,0,0,0,0,0h52c3.5,0.2,6.8,1.6,9.4,4l18.1,18.1C171.5,112.8,172.9,116.2,173.1,119.7z M165.7,125.3h-24.1c-3.1,0-5.6-2.5-5.6-5.6
	c0,0,0,0,0,0V95.6H91.4v89.1h74.2V125.3z M108.9,177.3h16.3v-6.1h-4.3l6-9.3c0.3-0.7,0.7-1.4,1.2-2h0.1c0.1,0.2,0.2,0.4,0.3,0.6
	c0.3,0.5,0.6,1,1,1.4l6.2,9.3h-4.4v6.1h16.9v-6.1h-3.9L133,155.2l11.3-16.4h3.9v-6.2H132v6.2h4.3l-6,9.2c-0.7,1.1-1.2,2-1.2,1.9H129
	c-0.1-0.2-0.2-0.4-0.3-0.6c-0.3-0.5-0.6-0.9-1-1.3l-6.2-9.2h4.4v-6.2h-16.8v6.2h3.9l11,15.8l-11.3,16.4h-3.9L108.9,177.3
	L108.9,177.3z M143.4,117.9h21.8c-0.3-0.9-0.7-1.7-1.3-2.4l-18.1-18.2c-0.7-0.6-1.5-1-2.4-1.3V117.9L143.4,117.9z"/>
</svg>
