<?xml version="1.0" encoding="utf-8"?>
<svg width="250" height="250" viewBox="0 0 250 250" fill="none" xmlns="http://www.w3.org/2000/svg">
    <rect width="250" height="250" fill="#653EFF"/>
    <g clip-path="url(#clip0_104_4215)">
        <path fill-rule="evenodd" clip-rule="evenodd"
              d="M164.311 152.629C163.389 153.551 162.065 153.551 160.973 152.63L157.636 149.293C156.714 148.371 156.714 146.877 157.636 145.955L173.87 129.72H144.868C142.518 150.958 124.528 167.481 102.665 167.481C79.204 167.481 60.1851 148.462 60.1851 125C60.1851 101.538 79.204 82.5189 102.665 82.5189C120.237 82.5189 135.27 93.2096 141.725 108.427C142.236 109.574 141.32 110.839 140.075 110.839H134.254C133.148 110.839 132.164 110.205 131.636 109.234C126.047 98.9524 115.193 91.9592 102.665 91.9592C84.4174 91.9592 69.6249 106.752 69.6249 125C69.6249 143.248 84.4174 158.041 102.665 158.041C119.305 158.041 133.034 145.726 135.366 129.72H100.305C99.0014 129.72 97.9448 128.663 97.9448 127.36V122.64C97.9448 121.336 99.0014 120.28 100.305 120.28H173.871L157.636 104.045C156.714 103.123 156.714 101.629 157.636 100.707L160.973 97.3702C162.067 96.4486 163.389 96.4486 164.311 97.3702L188.602 121.71C190.445 123.505 190.445 126.494 188.602 128.337L164.311 152.629Z"
              fill="white"/>
    </g>
    <defs>
        <clipPath id="clip0_104_4215">
            <rect width="130" height="84.9622" fill="white" transform="translate(60 82.5189)"/>
        </clipPath>
    </defs>
</svg>
