<svg id="Layer_1" data-name="Layer 1" xmlns="http://www.w3.org/2000/svg" viewBox="0 0 205.46 256"><defs><style>.cls-1{fill:#04723c;}.cls-2{font-size:32.89px;font-family:FontAwesome;}.cls-2,.cls-3{fill:#fff;}</style></defs><title>Plugin icoon</title><path class="cls-1" d="M128,256a6.14,6.14,0,0,1-3.07-.82L28.34,199.41a6.14,6.14,0,0,1-3.07-5.32V82.56a6.14,6.14,0,0,1,3.07-5.32l96.59-55.76a6.14,6.14,0,0,1,6.14,0l96.59,55.76a6.14,6.14,0,0,1,3.07,5.32V194.09a6.14,6.14,0,0,1-3.07,5.32l-96.59,55.76A6.14,6.14,0,0,1,128,256ZM37.56,190.55L128,242.76l90.44-52.22V86.11L128,33.89,37.56,86.11V190.55Z" transform="translate(-25.27 0)"/><polygon class="cls-1" points="161.35 6.14 191.38 23.48 191.38 58.15 161.35 75.48 131.33 58.15 131.33 23.48 161.35 6.14"/><path class="cls-1" d="M186.62,81.63a6.13,6.13,0,0,1-3.07-.82l-30-17.34a6.14,6.14,0,0,1-3.07-5.32V23.48a6.14,6.14,0,0,1,3.07-5.32l30-17.34a6.13,6.13,0,0,1,6.14,0l30,17.34a6.14,6.14,0,0,1,3.07,5.32V58.15a6.14,6.14,0,0,1-3.07,5.32l-30,17.34A6.13,6.13,0,0,1,186.62,81.63Zm-23.88-27,23.88,13.79L210.51,54.6V27L186.62,13.24,162.74,27V54.6Z" transform="translate(-25.27 0)"/><text class="cls-2" transform="translate(146.3 53.91)"></text><polygon class="cls-3" points="145.1 186.51 62.54 186.51 62.54 92.78 121.26 92.78 132.95 104.94 145.1 117.09 145.1 186.51"/><path class="cls-1" d="M173.09,119.69v66.82a5.56,5.56,0,0,1-5.57,5.56h-78A5.56,5.56,0,0,1,84,186.51V93.7a5.56,5.56,0,0,1,5.56-5.57h52A15.54,15.54,0,0,1,151,92.08l18.1,18.1A15.56,15.56,0,0,1,173.09,119.69Zm-7.42,5.57H141.54a5.56,5.56,0,0,1-5.56-5.57V95.56H91.43v89.09h74.24V125.26Zm-56.79,52h16.3v-6.15h-4.35l6-9.34a10.74,10.74,0,0,1,1.22-2h0.11a1.78,1.78,0,0,0,.3.58,12.1,12.1,0,0,0,1,1.39l6.21,9.34h-4.41v6.15h16.88v-6.15h-3.94L133,155.25l11.31-16.36h3.89v-6.21H132v6.21h4.3l-6,9.22c-0.69,1.1-1.22,2-1.22,1.92H129a1.62,1.62,0,0,0-.29-0.58,7.62,7.62,0,0,0-1-1.34l-6.15-9.22H126v-6.21H109.17v6.21h3.95l11,15.77-11.25,16.42h-3.95v6.15Zm34.52-59.39H165.2a7.53,7.53,0,0,0-1.28-2.38L145.77,97.3A7.41,7.41,0,0,0,143.4,96v21.81Z" transform="translate(-25.27 0)"/></svg>