<svg enable-background="new 0 0 250 250" height="250" viewBox="0 0 250 250" width="250" xmlns="http://www.w3.org/2000/svg" xmlns:xlink="http://www.w3.org/1999/xlink"><clipPath id="a"><path d="m71.7 75.9h147.2v96.2h-147.2z"/></clipPath><circle cx="126" cy="124" fill="#653eff" r="117.7"/><g clip-path="url(#a)"><path clip-rule="evenodd" d="m189.8 155.3c-1 1-2.5 1-3.8 0l-3.8-3.8c-1-1-1-2.7 0-3.8l18.4-18.4h-32.8c-2.7 24.1-23 42.8-47.8 42.8-26.6 0-48.1-21.5-48.1-48.1s21.5-48.1 48.1-48.1c19.9 0 36.9 12.1 44.2 29.3.6 1.3-.5 2.7-1.9 2.7h-6.6c-1.3 0-2.4-.7-3-1.8-6.3-11.6-18.6-19.6-32.8-19.6-20.7 0-37.4 16.8-37.4 37.4s16.8 37.4 37.4 37.4c18.8 0 34.4-13.9 37-32.1h-39.7c-1.5 0-2.7-1.2-2.7-2.7v-5.3c0-1.5 1.2-2.7 2.7-2.7h83.3l-18.4-18.4c-1-1-1-2.7 0-3.8l3.8-3.8c1.2-1 2.7-1 3.8 0l27.5 27.6c2.1 2 2.1 5.4 0 7.5z" fill="#fff" fill-rule="evenodd"/></g></svg>
